<svg xmlns="http://www.w3.org/2000/svg" xmlns:xlink="http://www.w3.org/1999/xlink" width="34" height="46" viewBox="0 0 34 46">
  <defs>
    <style>
      .cls-1 {
        fill-rule: evenodd;
        filter: url(#filter);
      }
    </style>
    <filter id="filter" x="120" y="1273" width="34" height="46" filterUnits="userSpaceOnUse">
      <feFlood result="flood" flood-color="#797778"/>
      <feComposite result="composite" operator="in" in2="SourceGraphic"/>
      <feBlend result="blend" in2="SourceGraphic"/>
    </filter>
  </defs>
  <path id="Forma_1" data-name="Forma 1" class="cls-1" d="M153.522,1273H122.05a2.04,2.04,0,0,0-2.05,2.02v41.97a2.023,2.023,0,0,0,2.034,2.01h31.488a0.474,0.474,0,0,0,.478-0.47v-45.06A0.474,0.474,0,0,0,153.522,1273Zm-31.472.94h0.025v36.42a0.478,0.478,0,0,0,.956,0v-36.42h30.014v41.05H123.031v-1.03a0.478,0.478,0,0,0-.956,0v1.03h-0.041a2.074,2.074,0,0,0-1.079.3v-40.27A1.093,1.093,0,0,1,122.05,1273.94Zm30.994,44.12h-31.01a1.065,1.065,0,1,1,0-2.13h31.011v2.13h0Zm-30.491-1.54h28.894a0.47,0.47,0,1,1,0,.94H122.553A0.47,0.47,0,1,1,122.553,1316.52Zm8.89-19.15h2a2.045,2.045,0,1,0,0-4.09h-2A2.045,2.045,0,1,0,131.443,1297.37Zm0-3.15h2a1.105,1.105,0,1,1,0,2.21h-2A1.105,1.105,0,1,1,131.443,1294.22Zm10.979,3.15h2a2.045,2.045,0,1,0,0-4.09h-2A2.045,2.045,0,1,0,142.422,1297.37Zm0-3.15h2a1.105,1.105,0,1,1,0,2.21h-2A1.105,1.105,0,1,1,142.422,1294.22Zm-13.694,12.68a0.478,0.478,0,0,0,.193.44,0.483,0.483,0,0,0,.282.09,0.651,0.651,0,0,0,.2-0.04l5.205-2.32a10.913,10.913,0,0,0,3.116.45h0.492a10.744,10.744,0,0,0,10.8-10.66v-9.74a4.2,4.2,0,0,0-4.226-4.17H135.3a3.162,3.162,0,0,0-2.821,1.7l-0.326.62H130.78a3.844,3.844,0,0,0-3.864,3.82v7.77a10.583,10.583,0,0,0,2.43,6.74Zm9.126-19.48v1.96a0.476,0.476,0,0,0,.295.44,0.5,0.5,0,0,0,.521-0.1l2.351-2.32h3.105a2.159,2.159,0,0,1,2.173,2.14v1.5a4.022,4.022,0,0,0-1.393-.24,4.213,4.213,0,0,0-.934.1c-0.014.01-.028,0.01-0.042,0.02l-5.222,1.7a2.506,2.506,0,0,1-1.485,0l-5.221-1.7c-0.014-.01-0.028-0.01-0.042-0.02a4.29,4.29,0,0,0-2.364.15v-1.48a2.161,2.161,0,0,1,2.173-2.15h6.085Zm-8.494,4.79a0.068,0.068,0,0,0,.037-0.02,3.206,3.206,0,0,1,1.628-.45,3.316,3.316,0,0,1,.7.08l5.2,1.69a3.376,3.376,0,0,0,2.085,0l5.2-1.69a3.306,3.306,0,0,1,.7-0.08,3.135,3.135,0,0,1,1.523.39,0.453,0.453,0,0,0,.216.13,3.1,3.1,0,0,1-.178,5.31l-1.954,1.1a2.362,2.362,0,0,1-1.189.31,2.391,2.391,0,0,1-1.7-.69l-2.275-2.25a2.081,2.081,0,0,0-2.924.02l-2.123,2.18a2.429,2.429,0,0,1-1.73.72,2.362,2.362,0,0,1-1.189-.31l-1.919-1.08A3.1,3.1,0,0,1,129.36,1292.21Zm-1.489-5.12a2.888,2.888,0,0,1,2.909-2.87h1.665a0.477,0.477,0,0,0,.425-0.26l0.458-.88a2.2,2.2,0,0,1,1.972-1.19h9.49a3.255,3.255,0,0,1,3.27,3.23v7.14a4.11,4.11,0,0,0-.805-0.73v-1.99a3.116,3.116,0,0,0-3.129-3.09h-3.3a0.475,0.475,0,0,0-.338.14l-1.675,1.65v-1.29a0.474,0.474,0,0,0-.478-0.47h-5.41v-0.94a0.478,0.478,0,0,0-.955,0v0.94h-0.2a3.109,3.109,0,0,0-3.129,3.09v1.99a3.929,3.929,0,0,0-.769.7v-5.17h0Zm0.523,10.89a4.305,4.305,0,0,0,.6.41l1.919,1.08a3.371,3.371,0,0,0,4.081-.58l2.123-2.17a1.1,1.1,0,0,1,.787-0.33,1.071,1.071,0,0,1,.773.32l2.275,2.24a3.369,3.369,0,0,0,4.04.54l1.953-1.1a3.688,3.688,0,0,0,.6-0.42,9.856,9.856,0,0,1-9.331,6.61H137.72a9.822,9.822,0,0,1-3-.46,0.5,0.5,0,0,0-.341.02l-4.6,2.04,0.542-4.65a0.459,0.459,0,0,0-.107-0.38A9.7,9.7,0,0,1,128.394,1297.98Z" transform="translate(-120 -1273)"/>
</svg>
