<svg xmlns="http://www.w3.org/2000/svg" xmlns:xlink="http://www.w3.org/1999/xlink" width="61" height="61" viewBox="0 0 61 61">
  <defs>
    <style>
      .cls-1 {
        fill-rule: evenodd;
        filter: url(#filter);
      }
    </style>
    <filter id="filter" x="181" y="548" width="61" height="61" filterUnits="userSpaceOnUse">
      <feFlood result="flood" flood-color="#545474"/>
      <feComposite result="composite" operator="in" in2="SourceGraphic"/>
      <feBlend result="blend" in2="SourceGraphic"/>
    </filter>
  </defs>
  <path class="cls-1" d="M215.676,576.928a1.02,1.02,0,0,0,.908.555,1.006,1.006,0,0,0,.461-0.111,87.27,87.27,0,0,1,9-4,1.017,1.017,0,0,0-.614-1.94,87.136,87.136,0,0,0-9.3,4.131A1.017,1.017,0,0,0,215.676,576.928Zm0.908-11.644a1.019,1.019,0,0,0,.461-0.111,86.984,86.984,0,0,1,9-4,1.017,1.017,0,0,0-.614-1.94,87.346,87.346,0,0,0-9.3,4.131A1.017,1.017,0,0,0,216.584,565.284Zm24.4-2.034a1.016,1.016,0,0,0-1.016,1.017v39.649a3.054,3.054,0,0,1-3.05,3.05h-24.4v-2.339a29.971,29.971,0,0,1,9.15-1.727,52.455,52.455,0,0,1,14.929,1.981,1.016,1.016,0,0,0,1.337-.965V559.184a1.016,1.016,0,0,0-.8-0.993s-0.8-.178-2.159-0.428a1.017,1.017,0,1,0-.368,2c0.519,0.095.954,0.18,1.29,0.247v42.555a57.413,57.413,0,0,0-14.233-1.7,31.953,31.953,0,0,0-10.128,1.948,23.82,23.82,0,0,0-9.189-1.948,68.476,68.476,0,0,0-15.25,1.742V559.971a66.856,66.856,0,0,1,15.25-1.8,22.051,22.051,0,0,1,8.133,1.675V599.85a1.017,1.017,0,0,0,1.54.871c0.1-.06,10.174-6.077,19.115-9.056a1.018,1.018,0,0,0,.695-0.965V549.017a1.018,1.018,0,0,0-1.374-.953,108.085,108.085,0,0,0-16.448,8.224,1.017,1.017,0,0,0,1.078,1.725A108.621,108.621,0,0,1,229.8,550.5v39.469a113.975,113.975,0,0,0-17.284,8.112v-38.9a1.016,1.016,0,0,0-.562-0.91,23.53,23.53,0,0,0-9.6-2.14,65.929,65.929,0,0,0-16.546,2.073,1.014,1.014,0,0,0-.738.977v44.732a1.017,1.017,0,0,0,1.3.978A65.252,65.252,0,0,1,202.35,602.9a22,22,0,0,1,8.133,1.676v2.39h-24.4a3.054,3.054,0,0,1-3.05-3.05V564.267a1.017,1.017,0,1,0-2.033,0v39.649A5.089,5.089,0,0,0,186.083,609h50.834A5.089,5.089,0,0,0,242,603.916V564.267A1.017,1.017,0,0,0,240.983,563.25Zm-25.307,7.578a1.02,1.02,0,0,0,1.369.445,86.984,86.984,0,0,1,9-4,1.017,1.017,0,0,0-.614-1.94,87.346,87.346,0,0,0-9.3,4.131A1.017,1.017,0,0,0,215.676,570.828Zm0,12.2a1.02,1.02,0,0,0,1.369.445,86.984,86.984,0,0,1,9-4,1.017,1.017,0,0,0-.614-1.94,87.136,87.136,0,0,0-9.3,4.131A1.017,1.017,0,0,0,215.676,583.028Zm-10.044-16.161c-6.278-1.473-13.412.4-13.712,0.485a1.016,1.016,0,1,0,.527,1.963c0.068-.019,6.936-1.825,12.721-0.468A1.017,1.017,0,0,0,205.632,566.867Zm0,6.1c-6.278-1.472-13.412.4-13.712,0.484a1.017,1.017,0,0,0,.262,2,1.053,1.053,0,0,0,.265-0.034c0.068-.02,6.936-1.826,12.721-0.469A1.017,1.017,0,0,0,205.632,572.967Zm10.044,16.161a1.018,1.018,0,0,0,1.369.444,87.27,87.27,0,0,1,9-4,1.017,1.017,0,0,0-.614-1.94,87.136,87.136,0,0,0-9.3,4.131A1.017,1.017,0,0,0,215.676,589.128Zm-10.044-10.061c-6.278-1.472-13.412.4-13.712,0.484a1.017,1.017,0,1,0,.527,1.964c0.068-.019,6.936-1.825,12.721-0.468A1.017,1.017,0,0,0,205.632,579.067Zm0,12.2c-6.278-1.473-13.412.4-13.712,0.484a1.017,1.017,0,1,0,.527,1.964c0.068-.019,6.936-1.826,12.721-0.468A1.017,1.017,0,0,0,205.632,591.267Zm0-6.1c-6.278-1.473-13.412.4-13.712,0.484a1.017,1.017,0,1,0,.527,1.964c0.068-.019,6.936-1.825,12.721-0.468A1.017,1.017,0,0,0,205.632,585.167Z" transform="translate(-181 -548)"/>
</svg>
