<svg xmlns="http://www.w3.org/2000/svg" xmlns:xlink="http://www.w3.org/1999/xlink" width="56" height="50" viewBox="0 0 56 50">
  <defs>
    <style>
      .cls-1 {
        fill-rule: evenodd;
        filter: url(#filter);
      }
    </style>
    <filter id="filter" x="962" y="559" width="56" height="50" filterUnits="userSpaceOnUse">
      <feFlood result="flood" flood-color="#545474"/>
      <feComposite result="composite" operator="in" in2="SourceGraphic"/>
      <feBlend result="blend" in2="SourceGraphic"/>
    </filter>
  </defs>
  <path id="Forma_1" data-name="Forma 1" class="cls-1" d="M1018,565.84v-0.018a0.18,0.18,0,0,0-.01-0.072v-0.026c0-.022-0.01-0.043-0.01-0.064s-0.01-.016-0.01-0.025-0.01-.045-0.02-0.067a0.011,0.011,0,0,0-.01-0.012l-2.22-5.623a1.473,1.473,0,0,0-1.38-.933h-4.06a0.79,0.79,0,1,0,0,1.579h3.98l1.77,4.474H999.286l-1.049-4.474h6.183a0.79,0.79,0,1,0,0-1.579H972.069a1.478,1.478,0,0,0-1.384.933l-2.225,5.623s0,0.008,0,.012c-0.008.022-.016,0.045-0.022,0.067l-0.006.025c0,0.021-.009.043-0.013,0.064s0,0.018,0,.026c0,0.024,0,.048,0,0.072,0,0.006,0,.012,0,0.018v11.6a0.8,0.8,0,0,0,1.6,0V566.632h16.95v12a1.2,1.2,0,0,0,.714,1.089,1.223,1.223,0,0,0,1.3-.2l4.236-3.7,4.235,3.7a1.223,1.223,0,0,0,1.3.2,1.2,1.2,0,0,0,.713-1.089v-12h16.95v35.405a1.037,1.037,0,0,1-1.04,1.028H1000.7v-0.027c0-.071-0.01-0.142-0.01-0.212a2.9,2.9,0,0,0,3.4-1.674,2.781,2.781,0,0,0-.02-2.174,1.515,1.515,0,0,0-.09-0.192,0.06,0.06,0,0,0-.02-0.035,1.271,1.271,0,0,0-.1-0.175,0.056,0.056,0,0,0-.02-0.033c-0.04-.059-0.08-0.117-0.12-0.172v0c-0.04-.055-0.09-0.108-0.13-0.159l-0.03-.028a1.461,1.461,0,0,0-.14-0.145l-0.03-.026c-0.05-.047-0.1-0.093-0.15-0.136-0.01,0-.01,0-0.01,0a1.761,1.761,0,0,0-.17-0.121l-0.03-.021a1.71,1.71,0,0,0-.17-0.107,0.081,0.081,0,0,1-.01-0.009,2.852,2.852,0,0,0,.77-1.074,2.781,2.781,0,0,0-.01-2.174,2.846,2.846,0,0,0-1.3-1.409c-0.09-.044-0.17-0.084-0.26-0.119l-12.449-5.01,5.793-1.77a2.587,2.587,0,0,0,1.73-3.234,2.531,2.531,0,0,0-.877-1.251,2.716,2.716,0,0,0-2.209-.511l-0.012,0c-0.044.01-4.485,1-9.124,1.889l-0.6.115-0.468.088-0.131.025-0.787.146-0.3.055c-5.825,1.059-7.462,1.078-7.916,1.018h0l-0.02,0-0.013,0-0.009,0a0.616,0.616,0,0,1-.068-0.015l-0.131-.053,0.163-.395a1.545,1.545,0,0,0-.006-1.2,1.637,1.637,0,0,0-.15-0.273,1.57,1.57,0,0,0-.717-0.572l-4.3-1.729a1.6,1.6,0,0,0-1.218.006,1.575,1.575,0,0,0-.857.855l-5.252,12.715a1.566,1.566,0,0,0,.873,2.048l4.295,1.729a1.6,1.6,0,0,0,2.075-.862l0.04-.1,0.99,0.4h0a8.793,8.793,0,0,1,2.575,1.6q0.207,0.185.4,0.381c0.13,0.131.255,0.267,0.376,0.406,0.06,0.07.119,0.14,0.178,0.212a10.365,10.365,0,0,0,4.172,3.073l1.114,0.448h-8.161a1.035,1.035,0,0,1-1.04-1.027v-2a0.8,0.8,0,0,0-1.6,0v2a2.627,2.627,0,0,0,2.64,2.606h12.084l10.3,4.146a2.894,2.894,0,0,0,3.751-1.557,2.8,2.8,0,0,0,.2-1.376,3,3,0,0,0,1.6-.209,2.849,2.849,0,0,0,1.238-1h15.15a2.623,2.623,0,0,0,2.64-2.606v-36.2Zm-28.19-5.261H996.6l1.05,4.474H988.76Zm-2.691,4.474H970.376l1.771-4.474h16.021Zm10.732,12.723h0l-3.846-3.363a1.223,1.223,0,0,0-1.605,0l-3.845,3.363V566.632h9.3v11.144Zm-29.97,18.261-4.281-1.723,5.246-12.7,4.282,1.724Zm31.948,4.764-0.918-.369h0s0,0,0,0h0l-9.558-3.846a0.8,0.8,0,0,0-1.042.432,0.785,0.785,0,0,0,.439,1.029l9.558,3.848c0.04,0.016.078,0.034,0.116,0.053l0.03,0.018a0.885,0.885,0,0,1,.078.046,0.27,0.27,0,0,1,.034.025,0.779,0.779,0,0,1,.065.048c0.013,0.009.024,0.021,0.036,0.031l0.056,0.05c0.012,0.012.022,0.025,0.034,0.037s0.033,0.034.048,0.052,0.021,0.028.032,0.042,0.028,0.035.041,0.054,0.019,0.031.029,0.047a0.626,0.626,0,0,1,.034.055c0.01,0.017.017,0.034,0.026,0.051s0.019,0.037.027,0.056,0.015,0.036.022,0.055,0.015,0.037.021,0.056,0.012,0.039.017,0.058,0.011,0.038.016,0.057,0.007,0.04.011,0.059,0.008,0.039.01,0.059,0,0.04,0,.06,0,0.04,0,.06,0,0.04,0,.06,0,0.041,0,.061,0,0.04-.006.059,0,0.042-.008.063-0.008.038-.012,0.058-0.008.042-.014,0.064-0.012.037-.018,0.055-0.013.043-.021,0.064-0.013.028-.019,0.043a0.042,0.042,0,0,0,0,.01,1.236,1.236,0,0,1-.656.639,1.373,1.373,0,0,1-1.042.013l-1.693-.681-0.024-.008-0.024-.012-7.774-3.128a0.8,0.8,0,0,0-1.042.432,0.785,0.785,0,0,0,.438,1.029l7.775,3.13,0.025,0.008,0.022,0.01a1.259,1.259,0,0,1,.7,1.645,1.285,1.285,0,0,1-1.666.692l-10.445-4.2h0l-4.892-1.969a8.783,8.783,0,0,1-2.366-1.419,8.639,8.639,0,0,1-1.162-1.18A10.377,10.377,0,0,0,971,595.482h0l-0.992-.4,1.975-4.782,1.867-4.518,0.137,0.056a2.1,2.1,0,0,0,.812.144,20.948,20.948,0,0,0,3.492-.293c1.253-.175,2.79-0.427,4.584-0.753l0.132-.024,0.254-.047,0.2-.036,0.23-.043,0.248-.046,0.2-.038,0.309-.058,0.16-.03,0.483-.093c4.623-.887,9.084-1.875,9.285-1.919l0.06-.01a1.051,1.051,0,0,1,1.164.691,0.989,0.989,0,0,1,.025.5,1.016,1.016,0,0,1-.7.767l-7.928,2.422a0.786,0.786,0,0,0-.065,1.485l14.512,5.843a1.244,1.244,0,0,1,.7,1.644,1.266,1.266,0,0,1-.68.686,1.362,1.362,0,0,1-.49.1h-0.01c-0.04,0-.08,0-0.12,0l-0.03,0-0.09-.012a0.242,0.242,0,0,1-.05-0.014,0.332,0.332,0,0,1-.07-0.016c-0.02-.006-0.05-0.015-0.07-0.023s-0.03-.011-0.05-0.018l-9.561-3.848a0.8,0.8,0,0,0-1.042.433,0.785,0.785,0,0,0,.438,1.029l11.585,4.665a1.3,1.3,0,0,1,.23.116,1.25,1.25,0,0,1,.47.563,1.237,1.237,0,0,1,.05.847c-0.01.04-.03,0.079-0.04,0.118s-0.04.08-.06,0.117a1.146,1.146,0,0,1-.17.238,0.907,0.907,0,0,1-.13.125,0.037,0.037,0,0,1-.02.019,1.289,1.289,0,0,1-1.06.261,1.431,1.431,0,0,1-.23-0.068Z" transform="translate(-962 -559)"/>
</svg>
