<svg xmlns="http://www.w3.org/2000/svg" xmlns:xlink="http://www.w3.org/1999/xlink" width="42" height="58" viewBox="0 0 42 58">
  <defs>
    <style>
      .cls-1 {
        fill-rule: evenodd;
        filter: url(#filter);
      }
    </style>
    <filter id="filter" x="777" y="551" width="42" height="58" filterUnits="userSpaceOnUse">
      <feFlood result="flood" flood-color="#545474"/>
      <feComposite result="composite" operator="in" in2="SourceGraphic"/>
      <feBlend result="blend" in2="SourceGraphic"/>
    </filter>
  </defs>
  <path id="Forma_1" data-name="Forma 1" class="cls-1" d="M813.718,555.281l-3.636,2.39-0.331,1.908,3.636-2.391Zm-0.679,3.91-3.637,2.39-0.382,2.195,3.637-2.391Zm1.326-7.631L811.242,551l-0.812,4.666,3.637-2.389Zm-10.354,19.915a1.993,1.993,0,0,0,0,3.985c0.049,0,.1-0.012.145-0.015,0.474,3.541-3.187,6.779-6.654,6.969-3.9.214-5.524-3.625-5.848-7.011a1.98,1.98,0,1,0-1.71-.421c0.287,4.659,2.9,9.817,8.287,9.077,4.507-.62,8.534-5.027,7.442-9.541A1.991,1.991,0,0,0,804.011,571.475Zm14.9,35.559c-1.443-5.767-5.715-25.562-.075-38.154,0-.012.007-0.025,0.012-0.038a1.19,1.19,0,0,0,.068-0.225,0.382,0.382,0,0,0,.014-0.056,1.329,1.329,0,0,0,.016-0.289c0-.018-0.006-0.036-0.008-0.053a1.176,1.176,0,0,0-.046-0.232c-0.008-.027-0.017-0.053-0.027-0.08a1.332,1.332,0,0,0-.092-0.2c-0.009-.015-0.013-0.034-0.024-0.051s-0.015-.015-0.02-0.025a0.357,0.357,0,0,0-.027-0.045l-4.055-5.534a1.241,1.241,0,0,0-.563-0.422,4.2,4.2,0,0,1-.235,3.613l1.339,1.829h-5.657l2.416-1.589,0.365-2.1-3.636,2.389-0.226,1.3h-3.811l1.862-2.98,0.424-.7-2.872-1.855-6.912-4.448-2.081,3.33,2.02,6.653h-1.045L791.8,553.14l-11.085,3.466,1.5,4.935h-1.162a1.257,1.257,0,0,0-1.121.694l-2.8,5.534c-0.012.024-.017,0.05-0.029,0.075s-0.027.065-.038,0.1a1.2,1.2,0,0,0-.046.186,0.85,0.85,0,0,0-.015.088,1.37,1.37,0,0,0,0,.248c0,0.011,0,.021,0,0.032a1.3,1.3,0,0,0,.065.274c0,0.008,0,.015,0,0.022,5.958,16.45,1.764,33.537.337,38.383a1.389,1.389,0,0,0,.151,1.316,1.255,1.255,0,0,0,1,.506h0.016a1.139,1.139,0,0,0,.777-0.291h37.683a1.161,1.161,0,0,0,.72.229,1.254,1.254,0,0,0,.994-0.494A1.463,1.463,0,0,0,818.908,607.034ZM781.821,564.1h1.169l0.9,2.98h-3.58Zm-1.514,42.059c1.662-6.385,4.546-21.506-.284-36.523h35.788c-4.5,12.32-1.337,29.493.294,36.523h-35.8Z" transform="translate(-777 -551)"/>
</svg>
