<svg xmlns="http://www.w3.org/2000/svg" xmlns:xlink="http://www.w3.org/1999/xlink" width="67" height="54" viewBox="0 0 67 54">
  <defs>
    <style>
      .cls-1 {
        fill-rule: evenodd;
        filter: url(#filter);
      }
    </style>
    <filter id="filter" x="1151" y="555" width="67" height="54" filterUnits="userSpaceOnUse">
      <feFlood result="flood" flood-color="#545474"/>
      <feComposite result="composite" operator="in" in2="SourceGraphic"/>
      <feBlend result="blend" in2="SourceGraphic"/>
    </filter>
  </defs>
  <path class="cls-1" d="M1210.26,563.816h-10.92l-0.28-1.158a9.9,9.9,0,0,0-9.71-7.658h-9.7a9.919,9.919,0,0,0-9.72,7.658l-0.27,1.158h-10.91a7.734,7.734,0,0,0-7.75,7.7v29.392a8.13,8.13,0,0,0,8.15,8.094h50.7a8.132,8.132,0,0,0,8.15-8.094V571.514A7.716,7.716,0,0,0,1210.26,563.816Zm4.46,37.09a4.849,4.849,0,0,1-4.86,4.824h-50.7a4.847,4.847,0,0,1-4.85-4.824V571.514a4.45,4.45,0,0,1,4.46-4.428h12.22a1.646,1.646,0,0,0,1.61-1.267l0.56-2.412a6.638,6.638,0,0,1,6.5-5.124h9.7a6.664,6.664,0,0,1,6.51,5.124l0.56,2.412a1.66,1.66,0,0,0,1.61,1.267h12.22a4.45,4.45,0,0,1,4.46,4.428v29.392h0Zm-52.4-28.315a1.622,1.622,0,1,1-1.63,1.622A1.626,1.626,0,0,1,1162.32,572.591Zm29.23,1.812a1.647,1.647,0,0,0-2.25.6,1.614,1.614,0,0,0,.6,2.234h0a1.643,1.643,0,0,0,.82.218,1.619,1.619,0,0,0,1.43-.817A1.638,1.638,0,0,0,1191.55,574.4Zm-16.37,17.414a1.647,1.647,0,0,0-2.86,1.636,1.673,1.673,0,0,0,1.43.817,1.642,1.642,0,0,0,1.43-2.453h0Zm-0.59-12.917a1.647,1.647,0,0,0-2.25.6,1.615,1.615,0,0,0,.6,2.235,1.653,1.653,0,0,0,.82.218A1.635,1.635,0,0,0,1174.59,578.9Zm-0.84,7.576a1.645,1.645,0,1,0-1.65,1.635h0A1.646,1.646,0,0,0,1173.75,586.476Zm10.74,10.7a1.635,1.635,0,1,0,0,3.27h0A1.635,1.635,0,1,0,1184.49,597.172Zm5.38-1.417a1.629,1.629,0,0,0-.6,2.235,1.654,1.654,0,0,0,2.25.6,1.637,1.637,0,0,0,.6-2.234A1.662,1.662,0,0,0,1189.87,595.755Zm-12.39-21.365a1.635,1.635,0,0,0,.82,3.052,1.662,1.662,0,0,0,.83-0.218A1.64,1.64,0,1,0,1177.48,574.39Zm1.63,21.352h0a1.642,1.642,0,0,0-1.66,2.834h0a1.662,1.662,0,0,0,.83.218,1.626,1.626,0,0,0,1.42-.818A1.608,1.608,0,0,0,1179.11,595.742Zm16.96-4.483a1.659,1.659,0,0,0-2.25.586,1.637,1.637,0,0,0,.59,2.234,1.662,1.662,0,0,0,.83.218,1.627,1.627,0,0,0,1.42-.817A1.608,1.608,0,0,0,1196.07,591.259Zm0.84-6.4a1.638,1.638,0,0,0-1.65,1.636v0.027a1.64,1.64,0,0,0,1.65,1.635h0a1.646,1.646,0,0,0,1.65-1.635h0V586.49h0A1.646,1.646,0,0,0,1196.91,584.854Zm-1.66-2.888a1.653,1.653,0,0,0,.82-0.218,1.636,1.636,0,0,0,.61-2.235,1.663,1.663,0,0,0-2.25-.6,1.634,1.634,0,0,0-.61,2.234A1.7,1.7,0,0,0,1195.25,581.966Zm-10.74-9.429a1.635,1.635,0,1,0,0,3.27h0a1.644,1.644,0,0,0,1.64-1.635A1.622,1.622,0,0,0,1184.51,572.537Z" transform="translate(-1151 -555)"/>
</svg>
