<svg xmlns="http://www.w3.org/2000/svg" xmlns:xlink="http://www.w3.org/1999/xlink" width="25" height="38" viewBox="0 0 25 38">
  <defs>
    <style>
      .cls-1 {
        fill-rule: evenodd;
        filter: url(#filter);
      }
    </style>
    <filter id="filter" x="122" y="1195" width="25" height="38" filterUnits="userSpaceOnUse">
      <feFlood result="flood" flood-color="#636363"/>
      <feComposite result="composite" operator="in" in2="SourceGraphic"/>
      <feBlend result="blend" in2="SourceGraphic"/>
    </filter>
  </defs>
  <path id="Forma_1" data-name="Forma 1" class="cls-1" d="M131.593,1195a0.674,0.674,0,0,0-.535.3l-1.907,2.8h-6.493a0.653,0.653,0,0,0-.658.65v6.46a0.653,0.653,0,0,0,.658.65h6.579a0.654,0.654,0,0,0,.658-0.65v-5.1l-1.316,1.94v2.52h-5.263v-5.17h4.958l-1.851,2.72-0.808-1.59a0.67,0.67,0,0,0-.879-0.3,0.65,0.65,0,0,0-.305.87,0.061,0.061,0,0,0,.007.01l1.316,2.59a0.662,0.662,0,0,0,.882.29,0.685,0.685,0,0,0,.254-0.22l5.263-7.76a0.642,0.642,0,0,0-.17-0.9,0.752,0.752,0,0,0-.39-0.11h0Zm2.907,5.69a0.654,0.654,0,0,0-.658.65v1.29a0.652,0.652,0,0,0,.658.64h11.842a0.652,0.652,0,0,0,.658-0.64v-1.29a0.654,0.654,0,0,0-.658-0.65H134.5Zm-11.842,6.47a0.651,0.651,0,0,0-.658.64v6.46a0.653,0.653,0,0,0,.658.65h6.579a0.654,0.654,0,0,0,.658-0.65v-6.46a0.652,0.652,0,0,0-.658-0.64h-6.579Zm0.658,1.29h5.263v5.17h-5.263v-5.17Zm11.184,1.29a0.652,0.652,0,0,0-.658.64v1.29a0.654,0.654,0,0,0,.658.65h11.842a0.654,0.654,0,0,0,.658-0.65v-1.29a0.652,0.652,0,0,0-.658-0.64H134.5Zm-11.842,6.46a0.651,0.651,0,0,0-.658.64v6.47a0.651,0.651,0,0,0,.658.64h6.579a0.652,0.652,0,0,0,.658-0.64v-6.47a0.652,0.652,0,0,0-.658-0.64h-6.579Zm0.658,1.29h5.263v5.17h-5.263v-5.17Zm11.184,1.3a0.652,0.652,0,0,0-.658.64v1.3a0.652,0.652,0,0,0,.658.64h11.842a0.652,0.652,0,0,0,.658-0.64v-1.3a0.652,0.652,0,0,0-.658-0.64H134.5Zm-11.842,6.46a0.645,0.645,0,0,0-.658.64v6.46a0.653,0.653,0,0,0,.658.65h6.579a0.654,0.654,0,0,0,.658-0.65v-6.46a0.645,0.645,0,0,0-.658-0.64h-6.579Zm0.658,1.29h5.263v5.17h-5.263v-5.17Zm11.184,1.29a0.654,0.654,0,0,0-.658.65v1.29a0.654,0.654,0,0,0,.658.65h11.842a0.654,0.654,0,0,0,.658-0.65v-1.29a0.654,0.654,0,0,0-.658-0.65H134.5Z" transform="translate(-122 -1195)"/>
</svg>
