<svg xmlns="http://www.w3.org/2000/svg" xmlns:xlink="http://www.w3.org/1999/xlink" width="29.969" height="32" viewBox="0 0 29.969 32">
  <defs>
    <style>
      .cls-1 {
        fill-rule: evenodd;
        filter: url(#filter);
      }
    </style>
    <filter id="filter" x="120.031" y="1458" width="29.969" height="32" filterUnits="userSpaceOnUse">
      <feFlood result="flood" flood-color="#636363"/>
      <feComposite result="composite" operator="in" in2="SourceGraphic"/>
      <feBlend result="blend" in2="SourceGraphic"/>
    </filter>
  </defs>
  <path id="Forma_1_copy_3" data-name="Forma 1 copy 3" class="cls-1" d="M133.437,1469.41s-0.461-1.38-.693-1.89a1.16,1.16,0,0,0-.573-0.76,0.861,0.861,0,0,0-.927.19,28.484,28.484,0,0,0-6.625,11.06,31.038,31.038,0,0,0-1.339,5.31h0a46.579,46.579,0,0,0-3.118,3.95,0.965,0.965,0,0,0-.146.71,0.946,0.946,0,0,0,.383.6,0.887,0.887,0,0,0,.522.16,0.923,0.923,0,0,0,.761-0.4,41.983,41.983,0,0,1,2.833-3.6,25.629,25.629,0,0,0,15.493-6.69,0.889,0.889,0,0,0,.247-0.9,0.866,0.866,0,0,0-.694-0.61c-0.695-.11-1.357-0.25-1.969-0.4a27.253,27.253,0,0,0,5.379-1.5,0.9,0.9,0,0,0,.383-0.29,38.37,38.37,0,0,0,6.631-15.31,0.885,0.885,0,0,0-.215-0.76,0.862,0.862,0,0,0-.726-0.27,30.12,30.12,0,0,0-7.506,1.81,0.88,0.88,0,0,0-.55.74c-0.047.53-.111,2.51-0.111,2.51s-0.229-1.41-.291-1.71a0.87,0.87,0,0,0-1.2-.61,23.33,23.33,0,0,0-5.022,3.24,0.837,0.837,0,0,0-.271.39,10.75,10.75,0,0,0-.655,5.03m13.7,11.72h-0.026v-0.76a0.921,0.921,0,0,0,.616-0.88,0.931,0.931,0,0,0-.922-0.94H142.67a0.939,0.939,0,0,0-.307,1.82v0.76h-0.025a2.324,2.324,0,0,0-2.305,2.34v4.18a2.326,2.326,0,0,0,2.305,2.35h4.794a2.327,2.327,0,0,0,2.306-2.35v-4.18A2.324,2.324,0,0,0,147.133,1481.13Z" transform="translate(-120.031 -1458)"/>
</svg>
