<svg xmlns="http://www.w3.org/2000/svg" xmlns:xlink="http://www.w3.org/1999/xlink" width="20" height="20" viewBox="0 0 20 20">
  <defs>
    <style>
      .cls-1 {
        fill-rule: evenodd;
        filter: url(#filter);
      }
    </style>
    <filter id="filter" x="1129" y="115" width="20" height="20" filterUnits="userSpaceOnUse">
      <feFlood result="flood" flood-color="#fff"/>
      <feComposite result="composite" operator="in" in2="SourceGraphic"/>
      <feBlend result="blend" in2="SourceGraphic"/>
    </filter>
  </defs>
  <path id="Forma_1_copy_2" data-name="Forma 1 copy 2" class="cls-1" d="M1148.43,131.783l-4.58-4.584a8.947,8.947,0,0,1-2.65,2.649l4.58,4.584A1.873,1.873,0,0,0,1148.43,131.783Zm-4.44-9.291a7.5,7.5,0,1,0-7.5,7.493A7.5,7.5,0,0,0,1143.99,122.492Zm-7.5,5.62a5.62,5.62,0,1,1,5.62-5.62A5.626,5.626,0,0,1,1136.49,128.112Zm-4.37-5.62h1.25a3.125,3.125,0,0,1,3.12-3.122v-1.249A4.376,4.376,0,0,0,1132.12,122.492Z" transform="translate(-1129 -115)"/>
</svg>
